<?xml version="1.0" standalone="no"?>
<!DOCTYPE svg PUBLIC "-//W3C//DTD SVG 1.1//EN" "http://www.w3.org/Graphics/SVG/1.1/DTD/svg11.dtd" >
<svg xmlns="http://www.w3.org/2000/svg" xmlns:xlink="http://www.w3.org/1999/xlink" version="1.1">
<metadata>
Created by FontForge 20170924 at Mon Jul 20 01:06:01 2015
 By www-data
Copyright (c) 2015 by Andrew Herndon. All rights reserved.
</metadata>
<defs>
<font id="Aquatico-Regular" horiz-adv-x="260" >
  <font-face 
    font-family="Aquatico"
    font-weight="400"
    font-stretch="normal"
    units-per-em="1000"
    panose-1="0 0 5 0 0 0 0 0 0 0"
    ascent="820"
    descent="-180"
    x-height="776"
    cap-height="786"
    bbox="50 -435 1277.96 891.061"
    underline-thickness="50"
    underline-position="-100"
    unicode-range="U+0020-00A9"
  />
<missing-glyph horiz-adv-x="500" 
d="M410 820v-1000h-317v1000h317zM333 753h-165v-33h65v-37h-66v-33h166v33h-66v37h66v33zM267 624h-100v-104h166v34h-66v70zM233 590v-36h-33v36h33zM333 493h-166v-33h66v-37h-66v-33h100v70h66v33zM333 433h-33v-66h-133v-34h166v100zM333 311h-100v-56h34v23h33v-47
h-100v80h-33v-113h166v113zM333 138h-166v-113h166v113zM300 105v-47h-100v47h100zM333 2h-166v-33h70l-70 -47v-33h166v33h-102l70 47h32v33z" />
    <glyph glyph-name=".notdef" horiz-adv-x="500" 
d="M410 820v-1000h-317v1000h317zM333 753h-165v-33h65v-37h-66v-33h166v33h-66v37h66v33zM267 624h-100v-104h166v34h-66v70zM233 590v-36h-33v36h33zM333 493h-166v-33h66v-37h-66v-33h100v70h66v33zM333 433h-33v-66h-133v-34h166v100zM333 311h-100v-56h34v23h33v-47
h-100v80h-33v-113h166v113zM333 138h-166v-113h166v113zM300 105v-47h-100v47h100zM333 2h-166v-33h70l-70 -47v-33h166v33h-102l70 47h32v33z" />
    <glyph glyph-name="space" unicode=" " horiz-adv-x="450" 
 />
    <glyph glyph-name="A" unicode="A" horiz-adv-x="918" 
d="M125 0c12 0 25 5 34 14c1 1 72 67 174 121c59 31 116 51 171 61c59 11 114 9 166 -6l78 -161c12 -24 42 -35 67 -22c25 12 35 42 23 66l-335 685c-8 17 -26 28 -45 28s-36 -11 -45 -28l-333 -686c-11 -22 -4 -48 15 -62c9 -7 20 -10 30 -10zM458 622l157 -321
c-42 4 -85 1 -130 -7c-65 -12 -133 -36 -200 -72c-10 -5 -19 -10 -28 -15z" />
    <glyph glyph-name="A.ss01" horiz-adv-x="918" 
d="M80 72l334 686c8 17 25 28 44 28h1c19 0 36 -11 44 -28l335 -685c12 -24 2 -54 -23 -67c-24 -12 -54 -1 -67 23l-84 174h-249c-28 0 -50 22 -50 50c0 27 22 50 50 50h200l-156 319l-289 -594c-9 -18 -26 -28 -45 -28c-7 0 -15 2 -22 5c-25 12 -35 42 -23 67z" />
    <glyph glyph-name="A.ss02" horiz-adv-x="834" 
d="M1237 -211c25 -13 34 -44 20 -68c-1 -3 -20 -36 -51 -70c-46 -51 -98 -78 -149 -79h-4c-74 0 -141 49 -200 147c-59 97 -141 260 -244 484h-206c-28 0 -50 22 -50 50c0 27 22 50 50 50h161l-9 19c-50 111 -95 215 -127 288l-252 -580c-11 -25 -41 -37 -66 -26
c-26 11 -37 41 -26 66l299 686c8 18 26 30 46 30s38 -12 46 -31c3 -7 303 -720 463 -984c51 -83 91 -100 116 -99c30 1 59 25 78 46c23 25 37 51 38 51c13 24 43 33 67 20z" />
    <glyph glyph-name="B" unicode="B" horiz-adv-x="790" 
d="M699 310c10 -32 13 -69 10 -110c-4 -39 -14 -72 -30 -101c-16 -26 -36 -47 -62 -63c-37 -23 -82 -35 -136 -35h-351c-13 0 -26 5 -35 14c-9 10 -15 22 -15 36v685c0 28 23 50 50 50h305c32 0 80 -2 124 -24c42 -20 94 -63 105 -156c5 -37 3 -70 -5 -101
c-7 -27 -20 -52 -37 -74c-4 -4 -7 -7 -10 -11c15 -9 28 -19 40 -31c21 -22 37 -48 47 -79zM609 209c5 49 -5 86 -28 110c-20 20 -49 29 -69 33c-22 4 -39 3 -40 3h-3l-166 -1h-1c-27 0 -49 23 -50 50c0 28 23 50 50 50l164 1c9 1 52 8 79 40c18 23 25 57 20 99
c-8 65 -45 92 -130 92h-255v-585h301c34 0 63 7 83 20c27 16 41 45 45 88z" />
    <glyph glyph-name="B.ss01" horiz-adv-x="790" 
d="M698 310c11 -32 14 -69 10 -110c-3 -39 -13 -72 -30 -101c-15 -26 -36 -47 -61 -63c-37 -23 -83 -35 -136 -35h-351c-13 0 -26 5 -35 14c-10 10 -15 22 -15 36v685c0 28 22 50 50 50h305c32 0 79 -2 124 -24c41 -20 94 -63 105 -156c4 -37 3 -70 -5 -101
c-8 -27 -20 -52 -38 -74c-3 -4 -6 -7 -10 -11c15 -9 29 -19 41 -31c21 -22 37 -48 46 -79zM435 686h-255v-232h285v1h-1c1 0 51 5 80 40c19 23 26 57 21 99c-8 65 -46 92 -130 92zM609 209c4 49 -6 86 -29 110c-20 20 -48 29 -68 33c-11 2 -20 2 -27 3c-2 0 -4 -1 -6 -1
h-299v-253h301c33 0 62 7 82 20c27 16 42 45 46 88z" />
    <glyph glyph-name="C" unicode="C" horiz-adv-x="849" 
d="M491 -13c48 0 96 9 141 26c43 16 83 39 119 69c21 17 24 49 6 70s-49 24 -70 6c-27 -22 -57 -40 -90 -52c-34 -12 -69 -19 -106 -19c-83 0 -161 33 -220 92c-29 28 -51 61 -67 98c-16 38 -24 77 -24 118s8 81 24 118s39 70 67 98c29 29 63 51 100 67c39 16 80 24 122 24
c68 0 131 -21 184 -62c21 -16 53 -12 70 10c16 22 12 53 -10 70c-70 54 -154 82 -244 82c-55 0 -109 -11 -160 -32c-49 -21 -94 -50 -132 -88c-38 -37 -68 -81 -89 -129c-21 -50 -32 -103 -32 -158c0 -54 10 -107 32 -157c21 -49 50 -93 88 -130c38 -38 82 -67 130 -88
c51 -22 105 -33 161 -33z" />
    <glyph glyph-name="D" unicode="D" horiz-adv-x="863" 
d="M376 0c54 0 107 11 157 31c48 20 92 48 129 84c38 36 67 78 88 125c22 48 33 100 33 152c0 53 -11 104 -32 153c-21 47 -50 89 -87 125s-81 65 -129 85c-49 20 -102 31 -157 31h-248c-13 0 -26 -6 -35 -15c-10 -9 -15 -22 -15 -35v-686c0 -27 22 -50 50 -50h245h1z
M180 100v586h198c82 0 158 -31 216 -88c28 -27 50 -58 65 -93c16 -36 24 -74 24 -113c0 -38 -8 -76 -24 -111s-38 -67 -66 -94s-61 -48 -98 -63s-76 -23 -117 -24h-198z" />
    <glyph glyph-name="E" unicode="E" horiz-adv-x="738" 
d="M608 101c28 0 50 -22 50 -50s-22 -50 -50 -50h-478c-27 0 -50 22 -50 50v685c0 28 23 50 50 50h468c28 0 50 -22 50 -50s-22 -50 -50 -50h-418v-241h370c28 0 50 -23 50 -50c0 -28 -22 -50 -50 -50h-370v-244h428z" />
    <glyph glyph-name="F" unicode="F" horiz-adv-x="730" 
d="M600 785c28 0 50 -23 50 -50c0 -28 -22 -50 -50 -50h-420v-251h359c27 0 50 -23 50 -50c0 -28 -23 -50 -50 -50h-359v-286c0 -27 -22 -50 -50 -50s-50 23 -50 50v687c0 27 22 50 50 50h470z" />
    <glyph glyph-name="G" unicode="G" horiz-adv-x="884" 
d="M491 -18c58 0 115 12 167 36c51 23 95 56 133 97c8 9 13 21 13 33v229c0 28 -22 50 -50 50s-50 -22 -50 -50v-208c-25 -25 -55 -45 -87 -60c-39 -18 -82 -27 -126 -27c-83 0 -161 33 -220 92c-29 28 -51 61 -67 98s-24 77 -24 118s8 80 24 118c16 37 39 69 68 98
c28 28 62 51 99 66c39 17 80 25 122 25c64 0 124 -19 175 -56c23 -16 54 -10 70 12c16 23 11 54 -12 70c-68 48 -148 74 -233 74c-55 0 -109 -11 -160 -32c-49 -21 -94 -50 -132 -88c-38 -37 -68 -81 -89 -129c-21 -50 -32 -103 -32 -158c0 -54 10 -107 32 -158
c21 -48 50 -92 88 -129c38 -38 82 -68 131 -88c50 -22 104 -33 160 -33z" />
    <glyph glyph-name="G.ss01" horiz-adv-x="884" 
d="M804 380v-1v-229c0 -12 -5 -24 -13 -33c-38 -41 -82 -74 -133 -97c-52 -24 -109 -36 -167 -36c-56 0 -110 11 -161 33c-48 20 -92 50 -130 88c-38 37 -67 81 -88 129c-22 51 -32 104 -32 158c0 55 11 108 32 158c21 48 51 92 89 129c38 38 83 67 132 88
c51 21 105 32 160 32c85 0 165 -26 233 -74c22 -16 28 -47 12 -70c-16 -22 -47 -28 -70 -12c-51 37 -111 56 -175 56c-42 0 -83 -8 -122 -25c-37 -15 -71 -38 -100 -66c-28 -29 -51 -61 -67 -98c-16 -38 -24 -77 -24 -118s8 -81 24 -118s38 -70 67 -98
c59 -59 137 -92 220 -92c44 0 86 9 126 27c32 15 62 35 87 60v128l-16 -6c-23 -7 -46 -10 -67 -10c-50 0 -92 18 -124 55c-13 15 -25 23 -36 23c-17 0 -35 -15 -41 -22l-6 -6c-20 -17 -49 -16 -67 5c-17 19 -19 47 -4 65c5 6 51 58 117 58h1c29 0 71 -10 112 -58
c28 -32 70 -19 86 -14c36 11 66 31 66 32c23 15 54 10 70 -12c6 -9 9 -19 9 -29z" />
    <glyph glyph-name="H" unicode="H" horiz-adv-x="791" 
d="M661 788c28 0 50 -22 50 -50v-686c0 -27 -22 -50 -50 -50c-27 0 -50 23 -50 50v300h-431v-300c0 -27 -22 -50 -50 -50s-50 23 -50 50v686c0 28 22 50 50 50s50 -22 50 -50v-286h431v286c0 28 23 50 50 50z" />
    <glyph glyph-name="I" unicode="I" 
d="M130 0c28 0 50 22 50 50v686c0 27 -22 50 -50 50c-27 0 -50 -23 -50 -50v-686c0 -28 23 -50 50 -50z" />
    <glyph glyph-name="J" unicode="J" horiz-adv-x="605" 
d="M293 -11h6c38 0 73 6 103 18c27 11 51 27 70 48c54 58 53 132 53 148v533c0 28 -23 50 -50 50c-28 0 -50 -22 -50 -50v-534v-4c0 -1 2 -45 -26 -76c-21 -22 -55 -33 -101 -33h-2c-2 0 -27 -1 -56 7c-34 9 -58 25 -72 47c-14 24 -45 32 -68 18c-24 -15 -32 -45 -18 -69
c28 -46 75 -79 136 -94c33 -8 62 -9 75 -9z" />
    <glyph glyph-name="K" unicode="K" horiz-adv-x="794" 
d="M130 4c28 0 50 22 50 50v686c0 27 -22 50 -50 50s-50 -23 -50 -50v-686c0 -28 22 -50 50 -50zM657 5c7 0 12 1 15 1c27 5 45 31 41 58c-5 26 -29 44 -56 41c-3 0 -27 2 -52 44c-71 122 -190 213 -261 260l308 295c20 19 21 50 2 70s-51 21 -71 2l-355 -340
c-12 -11 -18 -27 -15 -42c2 -16 11 -30 25 -38c2 -1 191 -104 280 -257c31 -53 68 -76 94 -85c19 -7 34 -9 45 -9z" />
    <glyph glyph-name="K.ss01" horiz-adv-x="748" 
d="M592 1c12 0 24 5 34 14c20 19 21 51 2 71l-295 310l319 305c20 19 21 51 2 71s-51 20 -71 1l-355 -339c-20 -19 -21 -51 -2 -71l329 -346c10 -11 24 -16 37 -16zM130 1c28 0 50 23 50 50v686c0 28 -22 50 -50 50c-27 0 -50 -22 -50 -50v-686c0 -27 23 -50 50 -50z" />
    <glyph glyph-name="K.ss02" horiz-adv-x="638" 
d="M827 -428h4c52 1 104 28 150 78c31 34 49 67 51 71c13 24 4 55 -20 68s-55 4 -68 -20c0 -1 -14 -26 -37 -51c-19 -21 -48 -46 -78 -46h-2c-25 0 -65 17 -114 99c-135 222 -318 495 -378 584l260 351c16 22 11 54 -11 70c-22 17 -53 12 -70 -10l-280 -380
c-13 -17 -13 -41 -1 -58c2 -4 233 -343 394 -609c60 -98 127 -147 200 -147zM130 0c27 0 50 22 50 50v686c0 28 -23 50 -50 50c-28 0 -50 -22 -50 -50v-686c0 -28 22 -50 50 -50z" />
    <glyph glyph-name="L" unicode="L" horiz-adv-x="696" 
d="M566 0c28 0 50 22 50 50s-22 50 -50 50h-386v636c0 28 -22 50 -50 50c-27 0 -50 -22 -50 -50v-686c0 -28 23 -50 50 -50h436z" />
    <glyph glyph-name="L.ss01" horiz-adv-x="696" 
d="M602 129c19 -20 19 -51 0 -71c-6 -6 -56 -55 -128 -55h-1c-44 0 -86 19 -122 55c-25 24 -63 30 -114 16c-45 -11 -80 -32 -81 -33c-8 -5 -17 -7 -26 -7c-16 0 -33 9 -42 24c-6 10 -8 20 -7 30c-1 1 -1 3 -1 4v644c0 28 23 50 50 50c28 0 50 -22 50 -50v-574l32 9
c109 28 174 -7 209 -43c18 -17 35 -25 52 -25c31 0 58 25 58 25c19 20 51 20 71 1z" />
    <glyph glyph-name="M" unicode="M" horiz-adv-x="933" 
d="M803 4c28 0 50 23 50 50v686c0 22 -14 41 -34 48c-21 7 -43 -1 -56 -18l-296 -406l-296 406c-13 17 -36 25 -56 18c-21 -7 -35 -26 -35 -48v-686c0 -27 23 -50 50 -50c28 0 50 23 50 50v533l246 -337c10 -13 25 -20 41 -20s31 7 40 20l246 337v-533c0 -27 23 -50 50 -50z
" />
    <glyph glyph-name="M.ss01" horiz-adv-x="976" 
d="M896 733c-1 -26 -19 -46 -43 -49v-637c0 -27 -22 -50 -50 -50s-50 23 -50 50v535l-246 -339c-9 -13 -24 -20 -40 -20s-31 7 -41 20l-246 337v-533c0 -27 -22 -50 -50 -50s-50 23 -50 50v686c0 22 14 41 35 48c20 7 43 -1 55 -18l296 -405l264 362c18 27 45 48 76 57
c14 4 27 6 40 6c28 0 50 -23 50 -50z" />
    <glyph glyph-name="N" unicode="N" horiz-adv-x="832" 
d="M702 -3c5 0 11 1 17 3c19 8 33 26 33 47v686c0 28 -23 50 -50 50c-28 0 -50 -22 -50 -50v-547l-484 580c-13 16 -35 22 -55 15s-33 -26 -33 -47v-686c0 -28 22 -50 50 -50s50 22 50 50v548l483 -581c10 -11 24 -18 39 -18z" />
    <glyph glyph-name="O" unicode="O" horiz-adv-x="967" 
d="M486 -17c110 0 212 43 289 121c37 37 66 81 86 130c21 49 31 102 31 157c0 54 -10 107 -31 157c-20 48 -48 92 -85 129c-76 78 -178 121 -287 121c-56 0 -110 -11 -161 -32c-49 -21 -93 -50 -131 -88c-38 -37 -68 -81 -89 -129c-22 -50 -33 -103 -33 -158
c0 -54 11 -107 32 -157c21 -49 51 -92 88 -130c38 -38 82 -67 131 -88c51 -22 105 -33 160 -33zM489 698c82 0 159 -32 216 -91c56 -57 87 -134 87 -216c0 -41 -8 -81 -23 -119c-16 -37 -37 -70 -65 -98c-58 -58 -135 -91 -218 -91s-161 33 -220 92c-29 28 -51 61 -67 98
c-16 38 -24 77 -24 118s8 81 25 118c15 37 38 70 67 98c29 29 62 51 100 67c39 16 80 24 122 24z" />
    <glyph glyph-name="O.ss01" horiz-adv-x="976" 
d="M813 636c19 -26 35 -55 48 -85c21 -50 31 -103 31 -157c0 -55 -11 -108 -31 -158c-21 -48 -50 -92 -87 -129c-76 -78 -179 -121 -288 -121c-56 0 -110 11 -160 33c-30 12 -58 28 -83 47l-69 -68c-10 -10 -22 -15 -35 -15s-26 5 -36 15c-19 19 -19 51 0 70l67 66
c-26 31 -47 65 -63 102c-22 51 -32 104 -32 158c0 55 11 108 32 158c21 48 51 92 89 129c38 38 83 67 132 88c51 21 105 32 160 32c95 0 185 -32 256 -92l71 71c20 20 52 20 71 0c20 -19 20 -51 0 -70zM199 276c11 -25 25 -49 42 -70l432 432c-52 41 -117 63 -185 63
c-42 0 -83 -8 -122 -25c-37 -15 -71 -38 -100 -66c-28 -28 -51 -61 -67 -98s-24 -77 -24 -118s8 -81 24 -118zM768 275c16 38 24 77 24 119c0 61 -18 120 -51 171l-427 -427c51 -34 110 -52 172 -52c82 0 160 33 217 91c28 28 50 61 65 98z" />
    <glyph glyph-name="P" unicode="P" horiz-adv-x="751" 
d="M130 0c28 0 50 22 50 50v636h247c3 0 40 -1 76 -22c19 -11 35 -26 46 -46c14 -25 22 -58 22 -98c0 -59 -21 -98 -65 -123c-38 -22 -94 -33 -165 -33c-27 0 -50 -22 -50 -50s23 -50 50 -50c89 0 161 15 215 46c75 43 115 115 115 210c0 43 -7 82 -20 116
c-12 31 -30 58 -52 80c-30 29 -69 51 -113 62c-31 8 -55 8 -59 8h-297c-27 0 -50 -22 -50 -50v-686c0 -28 23 -50 50 -50z" />
    <glyph glyph-name="Q" unicode="Q" horiz-adv-x="977" 
d="M671 29c31 -29 62 -74 80 -142c8 -27 -8 -54 -35 -61c-8 -3 -17 -3 -25 -1c-17 5 -31 18 -36 36c-14 50 -37 87 -69 108c-23 16 -43 18 -44 18h1v2c-49 -6 -101 -3 -151 9c-54 13 -103 37 -148 70c-42 32 -77 71 -105 117s-46 95 -54 147c-9 54 -7 108 7 161
c13 53 36 102 69 145c32 42 72 77 118 104s96 45 149 53c54 9 109 6 163 -7c106 -27 195 -93 250 -187c26 -45 44 -94 51 -146c8 -53 6 -107 -7 -160c-14 -52 -37 -101 -69 -145c-31 -42 -70 -77 -115 -105c-9 -6 -19 -11 -30 -16zM225 237c43 -72 111 -122 191 -142
s163 -7 233 36c34 20 63 47 87 79c24 33 42 70 52 109c19 80 8 162 -33 232s-108 120 -188 140c-41 10 -83 12 -124 6c-40 -7 -78 -20 -113 -41c-35 -20 -65 -47 -89 -79c-25 -32 -43 -69 -52 -108c-10 -40 -12 -80 -5 -121c6 -39 20 -77 41 -111z" />
    <glyph glyph-name="Q.ss01" horiz-adv-x="978" 
d="M799 126c33 -13 63 -35 88 -67c17 -22 13 -53 -8 -70c-10 -7 -21 -11 -31 -11c-15 0 -30 7 -40 19c-26 34 -59 47 -100 41c-11 -1 -20 -4 -28 -6c-58 -30 -122 -46 -189 -46c-55 0 -109 11 -160 32c-49 21 -93 51 -130 88c-38 38 -68 81 -88 130c-22 50 -33 103 -33 158
c0 54 11 107 33 157c21 49 51 92 89 130c38 37 82 67 131 87c51 21 105 32 161 32c109 0 212 -43 287 -120c37 -38 66 -81 86 -130c20 -50 31 -103 31 -157s-11 -107 -32 -157c-17 -40 -39 -77 -67 -110zM774 274c16 38 24 78 24 119c0 82 -32 159 -88 217
c-57 58 -134 90 -216 90c-42 0 -83 -8 -122 -24c-37 -16 -71 -38 -100 -67c-29 -28 -51 -61 -67 -97c-16 -38 -25 -78 -25 -118c0 -41 8 -81 25 -119c15 -36 38 -69 66 -98c59 -59 137 -91 220 -91s160 32 218 91c28 28 50 61 65 97z" />
    <glyph glyph-name="Q.ss02" horiz-adv-x="978" 
d="M854 87c21 -19 23 -50 5 -71c-10 -11 -24 -17 -38 -17c-12 0 -23 4 -33 13l-58 51c-68 -50 -172 -78 -259 -78c-56 0 -89 11 -140 33c-49 21 -92 50 -130 88s-68 81 -88 130c-22 50 -33 103 -33 157c0 55 11 108 33 158c21 48 51 92 89 129c38 38 82 67 132 88
c51 21 84 32 139 32c110 0 233 -43 309 -121c36 -37 65 -81 85 -129c20 -50 31 -103 31 -157c0 -55 -11 -108 -32 -157c-15 -38 -36 -73 -62 -104zM492 86c58 0 113 15 161 45l-120 107c-20 18 -22 50 -4 70c18 21 50 23 71 5l129 -115c18 23 34 48 45 76
c16 38 24 78 24 119c0 82 -31 159 -88 216c-57 59 -134 91 -216 91c-42 0 -83 -8 -122 -24c-37 -16 -71 -38 -100 -67c-29 -28 -51 -61 -67 -98s-25 -77 -25 -118s9 -80 25 -118c15 -37 38 -70 66 -98c59 -59 138 -91 221 -91z" />
    <glyph glyph-name="Q.ss03" horiz-adv-x="938" 
d="M1252 -213c24 -14 33 -44 20 -68c-2 -4 -20 -37 -52 -71c-46 -50 -97 -77 -149 -79h-4c-74 0 -141 50 -200 148c-68 111 -137 220 -195 309c-56 -27 -117 -42 -181 -42c-55 0 -109 11 -160 33c-49 21 -93 50 -130 88c-38 38 -68 81 -88 130c-22 50 -33 103 -33 157
c0 55 11 108 33 158c21 48 51 92 89 129c38 38 82 67 131 88c51 21 105 32 161 32c109 0 211 -43 287 -121c37 -37 66 -81 86 -129c20 -50 30 -103 30 -157c0 -55 -10 -108 -31 -157c-20 -49 -49 -93 -86 -130c-8 -8 -16 -16 -25 -23c59 -90 129 -201 198 -314
c50 -82 90 -99 115 -99c31 1 60 26 79 47c23 25 37 50 37 50c13 25 43 34 68 21zM491 85c44 0 86 9 125 26c-50 76 -83 125 -84 126c-15 23 -10 54 13 69c23 16 54 10 70 -13c0 -1 34 -50 85 -127l9 9c28 28 50 61 65 98c16 38 23 78 23 119c0 82 -31 159 -87 216
c-57 59 -134 91 -216 91c-42 0 -83 -8 -122 -24c-37 -16 -71 -38 -100 -67c-29 -28 -51 -61 -67 -98c-17 -37 -25 -77 -25 -118s8 -80 24 -118c16 -37 39 -70 67 -98c59 -59 137 -91 220 -91z" />
    <glyph glyph-name="R" unicode="R" horiz-adv-x="803" 
d="M130 0c28 0 50 23 50 50v636h247c3 0 40 -1 75 -21c20 -12 35 -27 46 -46c15 -26 22 -59 22 -99c0 -59 -20 -98 -64 -123c-39 -22 -94 -33 -165 -33c-26 0 -48 -19 -50 -45c-3 -26 14 -49 40 -54c2 0 28 -7 63 -30c50 -32 93 -79 128 -139c31 -54 70 -76 97 -86
c31 -10 54 -8 61 -7c27 4 46 30 42 57s-29 45 -56 42c-4 0 -32 0 -58 44c-31 55 -70 102 -113 139c22 6 42 15 60 25c75 43 115 116 115 210c0 43 -6 82 -20 116c-12 31 -29 58 -52 80c-29 29 -68 51 -112 62c-31 8 -55 8 -59 8h-297c-28 0 -50 -22 -50 -50v-686
c0 -27 22 -50 50 -50z" />
    <glyph glyph-name="R.ss01" horiz-adv-x="751" 
d="M616 1c3 0 6 1 10 1c27 5 44 32 39 59c-15 77 -40 141 -76 190c-15 20 -31 37 -49 52c6 3 11 5 16 8c75 43 115 116 115 210c0 43 -7 82 -20 116c-12 31 -30 58 -52 80c-30 30 -69 51 -113 62c-31 8 -55 8 -59 8h-297c-27 0 -50 -22 -50 -50v-686c0 -27 23 -50 50 -50
c28 0 50 23 50 50v636h247c3 0 40 -1 76 -21c19 -12 35 -27 46 -46c14 -26 22 -59 22 -99c0 -59 -21 -98 -65 -123c-30 -17 -71 -28 -123 -31c-28 2 -47 -2 -51 -3c-25 -4 -43 -28 -40 -53c2 -26 24 -46 49 -46c14 0 28 1 41 1c16 -1 37 -5 58 -16c27 -13 51 -33 70 -61
c26 -37 45 -86 57 -147c5 -24 26 -41 49 -41z" />
    <glyph glyph-name="R.ss03" horiz-adv-x="678" 
d="M783 -435c30 0 60 9 90 26c22 13 43 30 63 51c34 35 54 70 55 71c14 24 6 54 -18 68s-54 6 -68 -18c0 0 -16 -26 -40 -52c-21 -21 -51 -46 -82 -46h-1c-24 0 -63 17 -109 98c-111 195 -203 405 -245 507c53 8 98 23 135 45c34 21 60 48 78 81c20 35 30 77 30 125
c0 43 -7 82 -20 115c-13 31 -30 58 -53 80c-29 30 -68 51 -112 62c-31 8 -55 8 -59 8h-295c-28 0 -52 -23 -52 -52v-684c0 -27 23 -50 50 -50c28 0 50 23 50 50v636h247c2 0 60 0 101 -41c28 -28 43 -70 43 -124c0 -58 -20 -96 -61 -121c-36 -22 -88 -34 -155 -35
c-16 -1 -31 -9 -40 -23c-10 -13 -11 -30 -6 -45c2 -3 120 -308 278 -584c28 -49 59 -86 91 -111c33 -24 68 -37 104 -37h1z" />
    <glyph glyph-name="S" unicode="S" horiz-adv-x="722" 
d="M371 -12c93 0 165 22 212 66c38 36 59 84 59 136c0 64 -22 118 -65 160c-46 45 -115 76 -211 95c-41 9 -75 22 -101 39c-20 13 -35 28 -46 46c-18 29 -18 54 -18 58v2c0 26 13 52 34 71c19 17 52 36 107 36c72 0 115 -15 139 -27c22 -13 31 -24 33 -26
c13 -23 43 -31 67 -18s32 44 19 68c-6 11 -63 103 -258 103c-34 0 -67 -5 -97 -16c-29 -11 -55 -26 -76 -45c-43 -38 -68 -91 -68 -144c0 -12 0 -57 29 -107c18 -32 43 -59 75 -81c38 -26 86 -45 141 -57c76 -15 130 -38 161 -69c24 -23 35 -51 35 -88c0 -17 -5 -42 -27 -62
c-28 -26 -78 -40 -144 -40c-45 0 -110 6 -160 33c-26 14 -36 28 -38 30c-13 23 -43 32 -67 19s-33 -44 -20 -68c7 -12 68 -114 285 -114z" />
    <glyph glyph-name="T" unicode="T" horiz-adv-x="799" 
d="M669 786c28 0 50 -22 50 -50s-22 -50 -50 -50h-219v-636c0 -28 -23 -50 -50 -50c-28 0 -50 22 -50 50v636h-220c-28 0 -50 22 -50 50s22 50 50 50h539z" />
    <glyph glyph-name="U" unicode="U" horiz-adv-x="821" 
d="M411 -12c172 0 252 81 289 150c41 75 41 155 41 181v417c0 27 -22 50 -50 50c-27 0 -50 -23 -50 -50v-417c0 -20 0 -80 -29 -134c-15 -28 -37 -50 -64 -66c-35 -20 -81 -31 -137 -31s-102 11 -137 31c-28 16 -49 38 -65 67c-29 53 -29 113 -29 133v417
c0 27 -22 50 -50 50c-27 0 -50 -23 -50 -50v-417c0 -26 0 -105 41 -181c25 -45 59 -80 103 -105c51 -30 114 -45 187 -45z" />
    <glyph glyph-name="U.ss01" horiz-adv-x="969" 
d="M840 786c27 0 49 -23 49 -50c0 -28 -22 -50 -50 -50c-3 0 -6 0 -9 -1l-1 -1c-9 -3 -14 -11 -14 -20v-40v-1v-304c0 -26 0 -105 -41 -181c-24 -45 -59 -80 -102 -105c-51 -29 -114 -44 -187 -44c-74 0 -137 15 -188 44c-43 25 -77 61 -102 106c-41 75 -41 154 -41 180v304
v1v40c1 9 -5 17 -13 20c-1 0 -1 0 -1 1c-4 1 -7 1 -9 1h-1c-27 0 -50 22 -50 50c0 27 22 50 50 50c13 0 26 -2 39 -6l4 -1c49 -17 82 -64 81 -116v-344c0 -19 0 -79 29 -133c16 -28 37 -50 65 -66c35 -21 81 -31 137 -31c55 0 102 10 137 31c27 15 49 38 64 66
c29 53 29 113 29 133v344c-1 52 32 99 81 116c2 0 3 1 4 1c13 4 27 6 40 6z" />
    <glyph glyph-name="V" unicode="V" horiz-adv-x="833" 
d="M417 -2c20 0 38 12 46 31l286 692c11 25 -1 54 -27 65c-25 11 -55 -2 -65 -27l-240 -580l-240 580c-11 25 -40 38 -66 27c-25 -11 -37 -40 -27 -65l286 -692c8 -19 26 -31 47 -31z" />
    <glyph glyph-name="V.ss01" horiz-adv-x="890" 
d="M416 0c20 0 39 12 46 31l264 636c4 10 13 18 23 22c0 0 1 1 2 1c3 1 6 1 9 1c28 0 50 22 50 50s-22 50 -49 50c-13 1 -27 -2 -40 -6c-2 0 -5 -1 -7 -2c-36 -13 -65 -42 -80 -78l-218 -524l-240 580c-11 26 -40 38 -65 27c-26 -10 -38 -40 -27 -65l286 -692
c8 -19 26 -31 46 -31z" />
    <glyph glyph-name="W" unicode="W" horiz-adv-x="1270" 
d="M888 -3c21 0 40 13 47 33l252 692c10 26 -4 54 -30 64c-26 9 -54 -4 -64 -30l-205 -563l-206 563c-7 20 -26 33 -47 33s-40 -13 -47 -33l-205 -563l-206 563c-10 26 -38 39 -64 30c-26 -10 -40 -38 -30 -64l253 -692c7 -20 26 -33 47 -33s39 13 47 33l205 563l206 -563
c7 -20 26 -33 47 -33z" />
    <glyph glyph-name="W.ss01" horiz-adv-x="1225" 
d="M1114 786c26 -11 38 -40 27 -65l-293 -692c-8 -19 -26 -31 -46 -31s-38 12 -46 31l-143 337l-143 -337c-8 -19 -26 -31 -46 -31c-21 0 -39 12 -47 31l-293 692c-11 25 1 54 26 65c26 11 55 -1 66 -26l247 -584l135 318l-96 227c-11 25 1 54 27 65c25 11 55 -1 65 -26
l59 -138l58 138c10 25 40 37 65 26c26 -11 37 -40 27 -65l-96 -227l135 -318l247 584c11 25 40 37 65 26z" />
    <glyph glyph-name="X" unicode="X" horiz-adv-x="768" 
d="M679 79c16 -23 11 -54 -11 -70c-9 -6 -19 -9 -30 -9c-15 0 -30 7 -40 20l-213 296l-214 -296c-10 -13 -25 -20 -41 -20c-10 0 -20 3 -29 9c-23 16 -28 47 -11 70l233 323l-220 304c-17 23 -12 54 11 70c22 16 53 11 70 -11l201 -278l200 278c16 22 47 27 70 11
c22 -16 27 -47 11 -70l-220 -304z" />
    <glyph glyph-name="X.ss01" horiz-adv-x="800" 
d="M636 667c0 -1 -1 -1 -1 -2l-189 -262l233 -323c16 -22 11 -53 -12 -69c-8 -7 -19 -10 -29 -10c-15 0 -31 7 -40 21l-214 296l-214 -296c-9 -14 -25 -21 -40 -21c-10 0 -21 3 -29 10c-23 16 -28 47 -12 69l233 323l-220 305c-16 22 -11 54 12 70c22 16 53 11 69 -12
l201 -277l169 234c19 27 46 47 77 57c14 4 27 6 40 6c28 0 50 -23 50 -50c-1 -28 -23 -50 -50 -50h-1c-2 0 -5 0 -9 -2c-10 -3 -19 -9 -24 -17z" />
    <glyph glyph-name="X.ss02" horiz-adv-x="708" 
d="M1082 -194c24 -14 33 -44 19 -68c-2 -4 -20 -36 -51 -69c-46 -49 -97 -75 -148 -77h-5c-73 0 -140 48 -200 143c-124 198 -274 461 -342 579l-183 -283c-10 -15 -26 -23 -42 -23c-10 0 -19 3 -27 8c-24 15 -30 46 -15 69l210 325l-198 307c-16 23 -9 54 14 69
s54 9 69 -15l175 -269l174 269c15 24 46 30 70 15c23 -15 29 -46 14 -69l-199 -308c42 -76 222 -393 365 -621c28 -44 70 -96 115 -96h2c30 1 59 25 78 45c23 25 37 49 37 49c13 24 44 33 68 20z" />
    <glyph glyph-name="Y" unicode="Y" horiz-adv-x="797" 
d="M695 778c23 -16 29 -47 14 -70l-261 -390v-268c0 -27 -22 -50 -50 -50c-27 0 -50 23 -50 50v268l-260 390c-15 23 -9 54 14 70c23 15 54 9 69 -14l227 -341l228 341c15 23 46 29 69 14z" />
    <glyph glyph-name="Y.ss01" horiz-adv-x="894" 
d="M765 786c27 0 50 -23 49 -51c0 -27 -22 -49 -50 -49c-3 0 -6 -1 -9 -2c-10 -3 -18 -9 -24 -18l-232 -348v-268c0 -28 -23 -50 -50 -50c-28 0 -50 22 -50 50v267l-236 349c-6 9 -14 15 -24 18c-3 1 -6 2 -9 2c-27 0 -50 22 -50 49c0 28 22 51 49 51c13 0 27 -2 40 -6
c31 -10 59 -30 77 -58l202 -300l200 300c19 27 46 48 77 58c13 4 27 6 40 6z" />
    <glyph glyph-name="Y.ss02" horiz-adv-x="845" 
d="M715 788c28 0 50 -23 50 -50c-1 -28 -23 -50 -50 -50h-1c-2 0 -5 -1 -9 -2c-9 -2 -18 -9 -23 -18l-233 -348v-268c0 -28 -22 -50 -50 -50s-50 22 -50 50v268l-260 390c-16 23 -9 54 13 69c23 16 55 10 70 -13l227 -341l199 299c19 28 46 48 77 58c14 4 27 6 40 6z" />
    <glyph glyph-name="Z" unicode="Z" horiz-adv-x="804" 
d="M674 1c27 0 50 23 50 50c0 28 -23 50 -50 50h-441l480 604c12 15 14 35 6 53c-9 17 -26 28 -45 28h-529c-27 0 -50 -22 -50 -50s23 -50 50 -50h425l-480 -603c-12 -15 -14 -36 -6 -53c9 -18 26 -29 45 -29h545z" />
    <glyph glyph-name="Z.ss01" horiz-adv-x="804" 
d="M674 101c28 0 50 -22 50 -50c0 -27 -22 -50 -50 -50h-544c-19 0 -36 11 -45 29c-8 17 -6 38 6 53l202 253h-147c-28 0 -50 22 -50 50s22 50 50 50h226l199 250h-425c-28 0 -50 22 -50 50s22 50 50 50h528c20 0 37 -11 45 -28c9 -18 6 -38 -5 -53l-214 -269h174
c28 0 50 -22 50 -50s-22 -50 -50 -50h-254l-186 -235h440z" />
    <glyph glyph-name="a" unicode="a" horiz-adv-x="918" 
d="M125 0c12 0 25 5 34 14c1 1 72 67 174 121c59 31 116 51 171 61c59 11 114 9 166 -6l78 -161c12 -24 42 -35 67 -22c25 12 35 42 23 66l-335 685c-8 17 -26 28 -45 28s-36 -11 -45 -28l-333 -686c-11 -22 -4 -48 15 -62c9 -7 20 -10 30 -10zM458 622l157 -321
c-42 4 -85 1 -130 -7c-65 -12 -133 -36 -200 -72c-10 -5 -19 -10 -28 -15z" />
    <glyph glyph-name="b" unicode="b" horiz-adv-x="790" 
d="M699 310c10 -32 13 -69 10 -110c-4 -39 -14 -72 -30 -101c-16 -26 -36 -47 -62 -63c-37 -23 -82 -35 -136 -35h-351c-13 0 -26 5 -35 14c-9 10 -15 22 -15 36v685c0 28 23 50 50 50h305c32 0 80 -2 124 -24c42 -20 94 -63 105 -156c5 -37 3 -70 -5 -101
c-7 -27 -20 -52 -37 -74c-4 -4 -7 -7 -10 -11c15 -9 28 -19 40 -31c21 -22 37 -48 47 -79zM609 209c5 49 -5 86 -28 110c-20 20 -49 29 -69 33c-22 4 -39 3 -40 3h-3l-166 -1h-1c-27 0 -49 23 -50 50c0 28 23 50 50 50l164 1c9 1 52 8 79 40c18 23 25 57 20 99
c-8 65 -45 92 -130 92h-255v-585h301c34 0 63 7 83 20c27 16 41 45 45 88z" />
    <glyph glyph-name="c" unicode="c" horiz-adv-x="849" 
d="M491 -13c48 0 96 9 141 26c43 16 83 39 119 69c21 17 24 49 6 70s-49 24 -70 6c-27 -22 -57 -40 -90 -52c-34 -12 -69 -19 -106 -19c-83 0 -161 33 -220 92c-29 28 -51 61 -67 98c-16 38 -24 77 -24 118s8 81 24 118s39 70 67 98c29 29 63 51 100 67c39 16 80 24 122 24
c68 0 131 -21 184 -62c21 -16 53 -12 70 10c16 22 12 53 -10 70c-70 54 -154 82 -244 82c-55 0 -109 -11 -160 -32c-49 -21 -94 -50 -132 -88c-38 -37 -68 -81 -89 -129c-21 -50 -32 -103 -32 -158c0 -54 10 -107 32 -157c21 -49 50 -93 88 -130c38 -38 82 -67 130 -88
c51 -22 105 -33 161 -33z" />
    <glyph glyph-name="d" unicode="d" horiz-adv-x="863" 
d="M376 0c54 0 107 11 157 31c48 20 92 48 129 84c38 36 67 78 88 125c22 48 33 100 33 152c0 53 -11 104 -32 153c-21 47 -50 89 -87 125s-81 65 -129 85c-49 20 -102 31 -157 31h-248c-13 0 -26 -6 -35 -15c-10 -9 -15 -22 -15 -35v-686c0 -27 22 -50 50 -50h245h1z
M180 100v586h198c82 0 158 -31 216 -88c28 -27 50 -58 65 -93c16 -36 24 -74 24 -113c0 -38 -8 -76 -24 -111s-38 -67 -66 -94s-61 -48 -98 -63s-76 -23 -117 -24h-198z" />
    <glyph glyph-name="e" unicode="e" horiz-adv-x="738" 
d="M608 101c28 0 50 -22 50 -50s-22 -50 -50 -50h-478c-27 0 -50 22 -50 50v685c0 28 23 50 50 50h468c28 0 50 -22 50 -50s-22 -50 -50 -50h-418v-241h370c28 0 50 -23 50 -50c0 -28 -22 -50 -50 -50h-370v-244h428z" />
    <glyph glyph-name="f" unicode="f" horiz-adv-x="730" 
d="M600 785c28 0 50 -23 50 -50c0 -28 -22 -50 -50 -50h-420v-251h359c27 0 50 -23 50 -50c0 -28 -23 -50 -50 -50h-359v-286c0 -27 -22 -50 -50 -50s-50 23 -50 50v687c0 27 22 50 50 50h470z" />
    <glyph glyph-name="g" unicode="g" horiz-adv-x="884" 
d="M491 -18c58 0 115 12 167 36c51 23 95 56 133 97c8 9 13 21 13 33v229c0 28 -22 50 -50 50s-50 -22 -50 -50v-208c-25 -25 -55 -45 -87 -60c-39 -18 -82 -27 -126 -27c-83 0 -161 33 -220 92c-29 28 -51 61 -67 98s-24 77 -24 118s8 80 24 118c16 37 39 69 68 98
c28 28 62 51 99 66c39 17 80 25 122 25c64 0 124 -19 175 -56c23 -16 54 -10 70 12c16 23 11 54 -12 70c-68 48 -148 74 -233 74c-55 0 -109 -11 -160 -32c-49 -21 -94 -50 -132 -88c-38 -37 -68 -81 -89 -129c-21 -50 -32 -103 -32 -158c0 -54 10 -107 32 -158
c21 -48 50 -92 88 -129c38 -38 82 -68 131 -88c50 -22 104 -33 160 -33z" />
    <glyph glyph-name="h" unicode="h" horiz-adv-x="791" 
d="M661 788c28 0 50 -22 50 -50v-686c0 -27 -22 -50 -50 -50c-27 0 -50 23 -50 50v300h-431v-300c0 -27 -22 -50 -50 -50s-50 23 -50 50v686c0 28 22 50 50 50s50 -22 50 -50v-286h431v286c0 28 23 50 50 50z" />
    <glyph glyph-name="i" unicode="i" 
d="M130 0c28 0 50 22 50 50v686c0 27 -22 50 -50 50c-27 0 -50 -23 -50 -50v-686c0 -28 23 -50 50 -50z" />
    <glyph glyph-name="j" unicode="j" horiz-adv-x="605" 
d="M293 -11h6c38 0 73 6 103 18c27 11 51 27 70 48c54 58 53 132 53 148v533c0 28 -23 50 -50 50c-28 0 -50 -22 -50 -50v-534v-4c0 -1 2 -45 -26 -76c-21 -22 -55 -33 -101 -33h-2c-2 0 -27 -1 -56 7c-34 9 -58 25 -72 47c-14 24 -45 32 -68 18c-24 -15 -32 -45 -18 -69
c28 -46 75 -79 136 -94c33 -8 62 -9 75 -9z" />
    <glyph glyph-name="k" unicode="k" horiz-adv-x="794" 
d="M130 4c28 0 50 22 50 50v686c0 27 -22 50 -50 50s-50 -23 -50 -50v-686c0 -28 22 -50 50 -50zM657 5c7 0 12 1 15 1c27 5 45 31 41 58c-5 26 -29 44 -56 41c-3 0 -27 2 -52 44c-71 122 -190 213 -261 260l308 295c20 19 21 50 2 70s-51 21 -71 2l-355 -340
c-12 -11 -18 -27 -15 -42c2 -16 11 -30 25 -38c2 -1 191 -104 280 -257c31 -53 68 -76 94 -85c19 -7 34 -9 45 -9z" />
    <glyph glyph-name="l" unicode="l" horiz-adv-x="696" 
d="M566 0c28 0 50 22 50 50s-22 50 -50 50h-386v636c0 28 -22 50 -50 50c-27 0 -50 -22 -50 -50v-686c0 -28 23 -50 50 -50h436z" />
    <glyph glyph-name="m" unicode="m" horiz-adv-x="933" 
d="M803 4c28 0 50 23 50 50v686c0 22 -14 41 -34 48c-21 7 -43 -1 -56 -18l-296 -406l-296 406c-13 17 -36 25 -56 18c-21 -7 -35 -26 -35 -48v-686c0 -27 23 -50 50 -50c28 0 50 23 50 50v533l246 -337c10 -13 25 -20 41 -20s31 7 40 20l246 337v-533c0 -27 23 -50 50 -50z
" />
    <glyph glyph-name="n" unicode="n" horiz-adv-x="832" 
d="M702 -3c5 0 11 1 17 3c19 8 33 26 33 47v686c0 28 -23 50 -50 50c-28 0 -50 -22 -50 -50v-547l-484 580c-13 16 -35 22 -55 15s-33 -26 -33 -47v-686c0 -28 22 -50 50 -50s50 22 50 50v548l483 -581c10 -11 24 -18 39 -18z" />
    <glyph glyph-name="o" unicode="o" horiz-adv-x="967" 
d="M486 -17c110 0 212 43 289 121c37 37 66 81 86 130c21 49 31 102 31 157c0 54 -10 107 -31 157c-20 48 -48 92 -85 129c-76 78 -178 121 -287 121c-56 0 -110 -11 -161 -32c-49 -21 -93 -50 -131 -88c-38 -37 -68 -81 -89 -129c-22 -50 -33 -103 -33 -158
c0 -54 11 -107 32 -157c21 -49 51 -92 88 -130c38 -38 82 -67 131 -88c51 -22 105 -33 160 -33zM489 698c82 0 159 -32 216 -91c56 -57 87 -134 87 -216c0 -41 -8 -81 -23 -119c-16 -37 -37 -70 -65 -98c-58 -58 -135 -91 -218 -91s-161 33 -220 92c-29 28 -51 61 -67 98
c-16 38 -24 77 -24 118s8 81 25 118c15 37 38 70 67 98c29 29 62 51 100 67c39 16 80 24 122 24z" />
    <glyph glyph-name="p" unicode="p" horiz-adv-x="751" 
d="M130 0c28 0 50 22 50 50v636h247c3 0 40 -1 76 -22c19 -11 35 -26 46 -46c14 -25 22 -58 22 -98c0 -59 -21 -98 -65 -123c-38 -22 -94 -33 -165 -33c-27 0 -50 -22 -50 -50s23 -50 50 -50c89 0 161 15 215 46c75 43 115 115 115 210c0 43 -7 82 -20 116
c-12 31 -30 58 -52 80c-30 29 -69 51 -113 62c-31 8 -55 8 -59 8h-297c-27 0 -50 -22 -50 -50v-686c0 -28 23 -50 50 -50z" />
    <glyph glyph-name="q" unicode="q" horiz-adv-x="977" 
d="M671 29c31 -29 62 -74 80 -142c8 -27 -8 -54 -35 -61c-8 -3 -17 -3 -25 -1c-17 5 -31 18 -36 36c-14 50 -37 87 -69 108c-23 16 -43 18 -44 18h1v2c-49 -6 -101 -3 -151 9c-54 13 -103 37 -148 70c-42 32 -77 71 -105 117s-46 95 -54 147c-9 54 -7 108 7 161
c13 53 36 102 69 145c32 42 72 77 118 104s96 45 149 53c54 9 109 6 163 -7c106 -27 195 -93 250 -187c26 -45 44 -94 51 -146c8 -53 6 -107 -7 -160c-14 -52 -37 -101 -69 -145c-31 -42 -70 -77 -115 -105c-9 -6 -19 -11 -30 -16zM225 237c43 -72 111 -122 191 -142
s163 -7 233 36c34 20 63 47 87 79c24 33 42 70 52 109c19 80 8 162 -33 232s-108 120 -188 140c-41 10 -83 12 -124 6c-40 -7 -78 -20 -113 -41c-35 -20 -65 -47 -89 -79c-25 -32 -43 -69 -52 -108c-10 -40 -12 -80 -5 -121c6 -39 20 -77 41 -111z" />
    <glyph glyph-name="r" unicode="r" horiz-adv-x="803" 
d="M130 0c28 0 50 23 50 50v636h247c3 0 40 -1 75 -21c20 -12 35 -27 46 -46c15 -26 22 -59 22 -99c0 -59 -20 -98 -64 -123c-39 -22 -94 -33 -165 -33c-26 0 -48 -19 -50 -45c-3 -26 14 -49 40 -54c2 0 28 -7 63 -30c50 -32 93 -79 128 -139c31 -54 70 -76 97 -86
c31 -10 54 -8 61 -7c27 4 46 30 42 57s-29 45 -56 42c-4 0 -32 0 -58 44c-31 55 -70 102 -113 139c22 6 42 15 60 25c75 43 115 116 115 210c0 43 -6 82 -20 116c-12 31 -29 58 -52 80c-29 29 -68 51 -112 62c-31 8 -55 8 -59 8h-297c-28 0 -50 -22 -50 -50v-686
c0 -27 22 -50 50 -50z" />
    <glyph glyph-name="s" unicode="s" horiz-adv-x="722" 
d="M371 -12c93 0 165 22 212 66c38 36 59 84 59 136c0 64 -22 118 -65 160c-46 45 -115 76 -211 95c-41 9 -75 22 -101 39c-20 13 -35 28 -46 46c-18 29 -18 54 -18 58v2c0 26 13 52 34 71c19 17 52 36 107 36c72 0 115 -15 139 -27c22 -13 31 -24 33 -26
c13 -23 43 -31 67 -18s32 44 19 68c-6 11 -63 103 -258 103c-34 0 -67 -5 -97 -16c-29 -11 -55 -26 -76 -45c-43 -38 -68 -91 -68 -144c0 -12 0 -57 29 -107c18 -32 43 -59 75 -81c38 -26 86 -45 141 -57c76 -15 130 -38 161 -69c24 -23 35 -51 35 -88c0 -17 -5 -42 -27 -62
c-28 -26 -78 -40 -144 -40c-45 0 -110 6 -160 33c-26 14 -36 28 -38 30c-13 23 -43 32 -67 19s-33 -44 -20 -68c7 -12 68 -114 285 -114z" />
    <glyph glyph-name="t" unicode="t" horiz-adv-x="799" 
d="M669 786c28 0 50 -22 50 -50s-22 -50 -50 -50h-219v-636c0 -28 -23 -50 -50 -50c-28 0 -50 22 -50 50v636h-220c-28 0 -50 22 -50 50s22 50 50 50h539z" />
    <glyph glyph-name="u" unicode="u" horiz-adv-x="821" 
d="M411 -12c172 0 252 81 289 150c41 75 41 155 41 181v417c0 27 -22 50 -50 50c-27 0 -50 -23 -50 -50v-417c0 -20 0 -80 -29 -134c-15 -28 -37 -50 -64 -66c-35 -20 -81 -31 -137 -31s-102 11 -137 31c-28 16 -49 38 -65 67c-29 53 -29 113 -29 133v417
c0 27 -22 50 -50 50c-27 0 -50 -23 -50 -50v-417c0 -26 0 -105 41 -181c25 -45 59 -80 103 -105c51 -30 114 -45 187 -45z" />
    <glyph glyph-name="v" unicode="v" horiz-adv-x="833" 
d="M417 -2c20 0 38 12 46 31l286 692c11 25 -1 54 -27 65c-25 11 -55 -2 -65 -27l-240 -580l-240 580c-11 25 -40 38 -66 27c-25 -11 -37 -40 -27 -65l286 -692c8 -19 26 -31 47 -31z" />
    <glyph glyph-name="w" unicode="w" horiz-adv-x="1270" 
d="M888 -3c21 0 40 13 47 33l252 692c10 26 -4 54 -30 64c-26 9 -54 -4 -64 -30l-205 -563l-206 563c-7 20 -26 33 -47 33s-40 -13 -47 -33l-205 -563l-206 563c-10 26 -38 39 -64 30c-26 -10 -40 -38 -30 -64l253 -692c7 -20 26 -33 47 -33s39 13 47 33l205 563l206 -563
c7 -20 26 -33 47 -33z" />
    <glyph glyph-name="x" unicode="x" horiz-adv-x="768" 
d="M679 79c16 -23 11 -54 -11 -70c-9 -6 -19 -9 -30 -9c-15 0 -30 7 -40 20l-213 296l-214 -296c-10 -13 -25 -20 -41 -20c-10 0 -20 3 -29 9c-23 16 -28 47 -11 70l233 323l-220 304c-17 23 -12 54 11 70c22 16 53 11 70 -11l201 -278l200 278c16 22 47 27 70 11
c22 -16 27 -47 11 -70l-220 -304z" />
    <glyph glyph-name="y" unicode="y" horiz-adv-x="797" 
d="M695 778c23 -16 29 -47 14 -70l-261 -390v-268c0 -27 -22 -50 -50 -50c-27 0 -50 23 -50 50v268l-260 390c-15 23 -9 54 14 70c23 15 54 9 69 -14l227 -341l228 341c15 23 46 29 69 14z" />
    <glyph glyph-name="z" unicode="z" horiz-adv-x="804" 
d="M674 1c27 0 50 23 50 50c0 28 -23 50 -50 50h-441l480 604c12 15 14 35 6 53c-9 17 -26 28 -45 28h-529c-27 0 -50 -22 -50 -50s23 -50 50 -50h425l-480 -603c-12 -15 -14 -36 -6 -53c9 -18 26 -29 45 -29h545z" />
    <glyph glyph-name="zero" unicode="0" horiz-adv-x="845" 
d="M422 -15c48 0 94 12 137 34c41 21 78 51 109 89c62 76 97 177 97 284c0 106 -35 207 -97 283c-31 38 -68 68 -109 89c-43 23 -89 34 -137 34c-47 0 -93 -11 -136 -34c-41 -21 -78 -51 -109 -89c-63 -76 -97 -177 -97 -283c0 -107 34 -208 97 -284c31 -38 68 -68 109 -89
c43 -22 89 -34 136 -34zM422 698c63 0 123 -31 168 -86c48 -58 75 -137 75 -220c0 -84 -27 -162 -75 -220c-45 -56 -105 -87 -168 -87c-62 0 -122 31 -168 87c-48 58 -74 136 -74 220c0 83 26 162 74 220c46 55 106 86 168 86z" />
    <glyph glyph-name="one" unicode="1" horiz-adv-x="453" 
d="M323 0c28 0 50 22 50 50v687c0 16 -8 31 -20 40c-13 9 -30 12 -45 7l-193 -60c-26 -8 -41 -36 -33 -63c7 -21 27 -35 48 -35c5 0 10 1 15 3l128 40v-619c0 -28 22 -50 50 -50z" />
    <glyph glyph-name="two" unicode="2" horiz-adv-x="730" 
d="M600 0c27 0 50 22 50 50s-23 50 -50 50h-341l245 225c53 47 87 93 104 141c19 49 16 93 12 121c-8 57 -32 106 -68 142c-21 21 -47 38 -76 49c-30 12 -65 19 -102 20c-10 0 -40 1 -83 -16c-59 -22 -114 -64 -163 -125c-18 -22 -14 -53 7 -71c22 -17 53 -13 71 8
c35 44 75 76 114 93c27 11 45 11 48 11h1h1c49 -1 86 -15 112 -40c26 -26 35 -60 39 -84c4 -29 2 -51 -6 -74c-12 -32 -38 -65 -78 -101l-341 -312c-15 -14 -20 -36 -13 -55c8 -19 26 -32 47 -32h470z" />
    <glyph glyph-name="three" unicode="3" horiz-adv-x="706" 
d="M336 -11c44 0 148 14 219 79c21 20 37 43 49 69c13 29 19 60 19 94c0 35 -6 66 -18 94c-12 26 -28 50 -50 69c-38 36 -92 59 -159 70l217 238c14 15 17 36 9 54s-26 30 -46 30h-421c-28 0 -50 -22 -50 -50s22 -50 50 -50h308l-212 -233c-14 -15 -17 -37 -8 -56
c9 -18 29 -29 49 -27c2 0 36 2 78 -3c36 -5 86 -17 118 -47c24 -22 35 -51 35 -89c0 -37 -12 -66 -37 -89c-26 -25 -62 -38 -88 -44c-33 -9 -60 -9 -67 -9c-4 0 -8 1 -12 1c0 0 -28 1 -62 16c-37 15 -65 38 -86 69c-15 23 -46 29 -69 14c-23 -16 -29 -47 -14 -70
c31 -46 76 -83 130 -105c49 -21 89 -24 97 -24c2 0 5 0 9 -1h12z" />
    <glyph glyph-name="four" unicode="4" horiz-adv-x="826" 
d="M571 -4c28 0 50 23 50 50v136h75c27 0 50 23 50 50c0 28 -23 50 -50 50h-75v457c0 21 -13 40 -32 47c-20 7 -42 2 -55 -14l-442 -507c-12 -15 -16 -36 -7 -54c8 -17 26 -29 45 -29h391v-136c0 -27 23 -50 50 -50zM240 282l281 324v-324h-281z" />
    <glyph glyph-name="five" unicode="5" horiz-adv-x="709" 
d="M348 -12c32 0 64 5 94 14c32 11 61 26 87 46c43 33 73 76 89 125c16 52 14 106 -6 156c-15 36 -35 67 -60 92c-23 23 -50 41 -80 54c-60 24 -131 28 -213 12c-10 -2 -20 -4 -29 -7l14 206h334c28 0 50 22 50 50s-22 50 -50 50h-381c-26 0 -48 -20 -50 -47l-22 -326
c-1 -17 7 -34 21 -44s33 -12 49 -5c0 0 36 15 83 25c43 9 105 14 156 -7c39 -16 67 -45 85 -90c11 -29 12 -60 3 -89s-28 -56 -54 -76c-35 -27 -79 -41 -128 -39c-58 2 -121 26 -180 70c-23 16 -54 11 -70 -11c-17 -22 -12 -53 10 -70c40 -28 80 -51 121 -66
c39 -14 78 -22 116 -23h11z" />
    <glyph glyph-name="six" unicode="6" horiz-adv-x="747" 
d="M644 347c15 -33 23 -67 23 -103s-8 -71 -23 -103c-15 -31 -35 -59 -62 -83c-53 -48 -124 -75 -198 -75c-75 0 -146 27 -199 75c-26 24 -47 52 -62 83c-10 22 -17 45 -20 68c-24 73 -30 202 -14 280c20 96 64 176 127 231c64 55 143 82 229 78c70 -3 134 -34 172 -84
c17 -22 13 -53 -9 -70s-53 -13 -70 9c-24 31 -66 44 -98 45c-60 3 -115 -16 -159 -54c-46 -40 -79 -101 -94 -175c-3 -12 -5 -27 -6 -43l4 4c53 48 124 74 199 74c74 0 145 -26 198 -74c27 -24 47 -52 62 -83zM384 83c101 0 183 72 183 161c0 88 -82 160 -183 160
c-102 0 -184 -72 -184 -160c0 -4 0 -9 1 -13s2 -9 2 -13c14 -76 90 -135 181 -135z" />
    <glyph glyph-name="seven" unicode="7" horiz-adv-x="710" 
d="M224 1c18 0 35 10 44 27l357 685c8 16 7 34 -2 49s-25 24 -43 24h-450c-28 0 -50 -22 -50 -50c0 -27 22 -50 50 -50h368l-318 -612c-13 -24 -4 -55 21 -67c7 -4 15 -6 23 -6z" />
    <glyph glyph-name="eight" unicode="8" horiz-adv-x="753" 
d="M647 323c17 -30 26 -63 26 -97s-9 -66 -26 -97c-16 -28 -38 -53 -66 -75c-56 -42 -128 -65 -205 -65s-149 23 -204 65c-29 22 -51 47 -67 75c-17 31 -25 63 -25 97s8 67 25 97c16 29 38 54 67 75c9 7 19 14 29 20l-6 4c-25 20 -45 43 -59 69c-15 28 -23 58 -23 89
s8 61 23 89c14 26 34 49 59 68c50 39 115 60 183 60s133 -21 182 -60c26 -19 46 -42 60 -68c15 -28 23 -58 23 -89s-8 -61 -23 -89c-14 -26 -34 -49 -60 -69c-2 -2 -5 -4 -7 -5c10 -6 19 -12 28 -19c28 -21 50 -46 66 -75zM257 658c-28 -22 -44 -49 -44 -78s16 -57 44 -79
c32 -25 75 -38 121 -38s89 13 121 38c28 22 44 50 44 79s-16 56 -44 78c-32 25 -75 39 -121 39s-89 -14 -121 -39zM520 134c34 26 53 58 53 92s-19 67 -53 92c-38 29 -89 45 -144 45s-106 -16 -144 -45c-34 -25 -52 -58 -52 -92s18 -66 52 -92c38 -29 89 -45 144 -45
s106 16 144 45z" />
    <glyph glyph-name="nine" unicode="9" horiz-adv-x="747" 
d="M103 435c-15 33 -23 68 -23 104c0 35 8 70 23 103c15 31 35 59 62 82c53 49 124 75 199 75c74 0 145 -26 198 -75c27 -23 47 -51 62 -82c10 -22 17 -45 21 -69c23 -72 29 -202 13 -280c-19 -96 -63 -176 -127 -231s-143 -82 -229 -78c-69 3 -134 35 -172 84
c-17 22 -13 54 9 70c22 17 53 13 70 -9c24 -31 66 -43 98 -45c60 -3 115 16 159 54c46 40 79 101 95 176c2 12 4 26 5 42l-4 -3c-53 -48 -124 -75 -198 -75c-75 0 -146 27 -199 75c-27 23 -47 51 -62 82zM364 699c-102 0 -184 -72 -184 -160c0 -89 82 -161 184 -161
c101 0 183 72 183 161c0 4 0 8 -1 12c-1 5 -1 9 -1 14c-15 76 -91 134 -181 134z" />
    <glyph glyph-name="asterisk" unicode="*" horiz-adv-x="468" 
d="M373 537c20 -20 20 -52 0 -71c-11 -10 -25 -15 -38 -14c-12 0 -24 5 -33 14l-68 69l-69 -68c-11 -11 -25 -15 -38 -15c-12 1 -24 6 -33 15c-19 20 -19 51 1 71l68 68l-68 69c-19 20 -19 51 0 71c20 19 52 19 71 0l68 -69l69 68c20 19 52 19 71 0c19 -20 19 -52 0 -71
l-69 -68z" />
    <glyph glyph-name="colon" unicode=":" horiz-adv-x="305" 
d="M225 501c0 40 -33 73 -73 73s-72 -33 -72 -73s32 -72 72 -72s73 32 73 72zM225 98c0 40 -33 73 -73 73s-72 -33 -72 -73s32 -72 72 -72s73 32 73 72z" />
    <glyph glyph-name="comma" unicode="," 
d="M130 -112c27 0 50 22 50 50v166c0 28 -23 50 -50 50c-28 0 -50 -22 -50 -50v-166c0 -28 22 -50 50 -50z" />
    <glyph glyph-name="exclam" unicode="!" horiz-adv-x="309" 
d="M154 245c28 0 50 22 50 50v442c0 28 -22 50 -50 50c-27 0 -50 -22 -50 -50v-442c0 -28 23 -50 50 -50zM229 78c0 41 -33 75 -75 75c-41 0 -74 -34 -74 -75s33 -75 74 -75c42 0 75 34 75 75z" />
    <glyph glyph-name="numbersign" unicode="#" horiz-adv-x="861" 
d="M731 503h-85l-36 -215h79c27 0 50 -22 50 -50c0 -27 -23 -50 -50 -50h-95l-25 -144c-4 -25 -25 -42 -49 -42c-3 0 -5 0 -8 1c-27 4 -46 30 -41 57l21 128h-196l-24 -144c-4 -25 -25 -42 -49 -42c-3 0 -5 0 -8 1c-27 4 -46 30 -41 57l21 128h-65c-28 0 -50 23 -50 50
c0 28 22 50 50 50h82l36 215h-76c-28 0 -50 23 -50 50c0 28 22 50 50 50h92l24 142c5 27 30 46 58 41c27 -5 45 -30 41 -58l-21 -125h196l23 142c5 27 31 46 58 41s45 -30 41 -58l-21 -125h68c27 0 50 -22 50 -50c0 -27 -23 -50 -50 -50zM509 288l36 215h-196l-36 -215h196z
" />
    <glyph glyph-name="period" unicode="." horiz-adv-x="309" 
d="M229 75c0 41 -33 75 -74 75c-42 0 -75 -34 -75 -75c0 -42 33 -75 75 -75c41 0 74 33 74 75z" />
    <glyph glyph-name="question" unicode="?" horiz-adv-x="642" 
d="M291 203h2c28 1 49 25 48 52l-4 94l24 3c60 10 108 33 143 67c20 19 35 42 45 68c10 27 15 59 13 92c-1 34 -8 65 -21 92c-12 25 -28 46 -49 64c-34 29 -80 48 -133 54c-35 5 -63 3 -69 2s-32 -3 -67 -15c-49 -18 -94 -46 -129 -84c-19 -20 -18 -51 2 -70s52 -18 71 2
c55 59 128 67 132 67c0 0 1 0 2 1c0 0 79 7 126 -33c22 -19 34 -46 35 -84c2 -37 -7 -64 -28 -85c-40 -40 -119 -44 -146 -43c-14 1 -28 -4 -38 -14s-15 -24 -15 -38l6 -144c1 -27 24 -48 50 -48zM368 72c0 40 -33 73 -73 73s-73 -33 -73 -73s33 -73 73 -73s73 33 73 73z
" />
    <glyph glyph-name="quotedbl" unicode="&#x22;" horiz-adv-x="400" 
d="M123 524c28 0 50 23 50 50v166c0 28 -22 50 -50 50c-27 0 -50 -22 -50 -50v-166c0 -27 23 -50 50 -50zM277 524c28 0 50 23 50 50v166c0 28 -22 50 -50 50s-50 -22 -50 -50v-166c0 -27 22 -50 50 -50z" />
    <glyph glyph-name="quotesingle" unicode="'" 
d="M130 520c27 0 50 22 50 50v166c0 28 -23 50 -50 50c-28 0 -50 -22 -50 -50v-166c0 -28 22 -50 50 -50z" />
    <glyph glyph-name="semicolon" unicode=";" horiz-adv-x="305" 
d="M225 486c0 40 -32 72 -72 72s-73 -32 -73 -72s33 -73 73 -73s72 33 72 73zM153 -116c27 0 50 22 50 50v159c0 28 -23 50 -50 50c-28 0 -50 -22 -50 -50v-159c0 -28 22 -50 50 -50z" />
    <glyph glyph-name="slash" unicode="/" horiz-adv-x="720" 
d="M130 -147c19 0 36 11 45 28l460 938c12 24 2 54 -23 67c-25 12 -55 2 -67 -23l-460 -937c-12 -25 -2 -55 23 -67c7 -4 15 -6 22 -6z" />
    <glyph glyph-name="underscore" unicode="_" horiz-adv-x="777" 
d="M677 -180c27 0 50 22 50 50s-23 50 -50 50h-577c-28 0 -50 -22 -50 -50s22 -50 50 -50h577z" />
    <glyph glyph-name="parenleft" unicode="(" horiz-adv-x="503" 
d="M367 -118c19 0 37 11 45 29c12 25 0 55 -25 66c-59 27 -111 74 -148 136c-39 65 -59 141 -59 221c0 81 21 159 61 224c38 63 91 109 152 135c25 11 37 40 26 66c-11 25 -40 37 -65 26c-40 -17 -78 -41 -112 -71c-33 -29 -62 -64 -86 -104c-50 -81 -76 -177 -76 -276
c0 -98 25 -192 73 -272s115 -141 193 -176c7 -3 14 -4 21 -4z" />
    <glyph glyph-name="parenright" unicode=")" horiz-adv-x="504" 
d="M137 782c-19 0 -38 -11 -46 -29c-11 -25 0 -55 25 -66c60 -27 111 -74 148 -136c39 -65 60 -141 60 -221c0 -81 -22 -159 -62 -224c-38 -63 -90 -110 -151 -135c-26 -11 -38 -40 -27 -66c11 -25 40 -37 66 -26c40 17 77 41 111 71c34 29 63 64 87 104
c49 81 76 176 76 276c0 98 -26 192 -74 272s-114 141 -193 176c-6 3 -13 4 -20 4z" />
    <glyph glyph-name="hyphen" unicode="-" horiz-adv-x="491" 
d="M361 317c28 0 50 23 50 50c0 28 -22 50 -50 50h-231c-28 0 -50 -22 -50 -50c0 -27 22 -50 50 -50h231z" />
    <glyph glyph-name="dollar" unicode="$" horiz-adv-x="701" 
d="M559 354c41 -41 62 -93 62 -155c0 -51 -20 -98 -57 -132c-37 -35 -88 -56 -154 -63v-60c0 -27 -22 -50 -50 -50s-50 23 -50 50v60c-168 14 -219 99 -224 109c-13 25 -4 55 20 68s54 4 67 -19c1 -2 11 -15 36 -29c20 -11 52 -23 101 -28v250c-43 11 -79 28 -110 49
c-31 22 -55 49 -73 79c-27 49 -27 93 -27 104c0 52 24 103 65 140c21 19 46 34 74 44c22 9 46 13 71 15v19c0 28 22 50 50 50s50 -22 50 -50v-24c125 -20 166 -86 171 -94c13 -25 4 -55 -20 -68s-53 -5 -67 18c-1 1 -10 13 -31 24c-12 6 -29 13 -53 19v-246
c65 -19 113 -45 149 -80zM260 484c14 -9 31 -17 50 -24v226c-38 -4 -64 -19 -78 -33c-20 -18 -32 -43 -32 -67v-3c0 -4 0 -28 17 -55c10 -17 25 -31 43 -44zM496 140c21 19 25 43 25 59c0 35 -10 62 -33 84c-18 18 -44 33 -78 46v-224c38 5 67 17 86 35z" />
    <glyph glyph-name="equal" unicode="=" horiz-adv-x="682" 
d="M552 453c28 0 50 23 50 50c0 28 -22 50 -50 50h-422c-27 0 -50 -22 -50 -50c0 -27 23 -50 50 -50h422zM552 191c28 0 50 23 50 50c0 28 -22 50 -50 50h-422c-27 0 -50 -22 -50 -50c0 -27 23 -50 50 -50h422z" />
    <glyph glyph-name="greater" unicode="&#x3e;" horiz-adv-x="720" 
d="M130 22c8 0 15 2 22 5l460 227c17 8 28 26 28 45s-11 36 -28 45l-454 227c-25 12 -55 2 -68 -23c-12 -25 -2 -55 23 -67l365 -182l-370 -182c-25 -12 -35 -42 -22 -67c8 -18 26 -28 44 -28z" />
    <glyph glyph-name="less" unicode="&#x3c;" horiz-adv-x="720" 
d="M590 574c-7 0 -15 -2 -22 -5l-460 -227c-17 -8 -28 -26 -28 -45s11 -36 28 -45l455 -227c25 -12 55 -2 67 23s2 55 -22 67l-365 182l369 182c25 12 35 42 23 67c-9 18 -26 28 -45 28z" />
    <glyph glyph-name="percent" unicode="%" horiz-adv-x="995" 
d="M260 400c49 0 95 21 129 59c33 37 51 86 51 137s-18 100 -51 137c-34 38 -80 59 -129 59s-95 -21 -130 -59c-32 -37 -50 -86 -50 -137s18 -100 50 -137c35 -38 81 -59 130 -59zM249 1c15 0 30 7 40 21l501 685c16 22 11 53 -11 70c-23 16 -54 11 -70 -11l-500 -685
c-17 -23 -12 -54 10 -70c9 -7 20 -10 30 -10zM260 692c44 0 80 -43 80 -96s-36 -96 -80 -96s-80 43 -80 96s36 96 80 96zM735 -3c49 0 95 21 129 59c33 37 51 86 51 137s-18 100 -51 137c-34 38 -80 59 -129 59s-95 -21 -129 -59c-33 -37 -51 -86 -51 -137s18 -100 51 -137
c34 -38 80 -59 129 -59zM735 289c44 0 80 -43 80 -96s-36 -96 -80 -96s-80 43 -80 96s36 96 80 96z" />
    <glyph glyph-name="plus" unicode="+" horiz-adv-x="722" 
d="M592 431c28 0 50 -23 50 -50c0 -28 -22 -50 -50 -50h-181v-173c0 -28 -22 -50 -50 -50c-27 0 -50 22 -50 50v173h-181c-28 0 -50 22 -50 50c0 27 22 50 50 50h181v176c0 28 23 50 50 50c28 0 50 -22 50 -50v-176h181z" />
    <glyph glyph-name="at" unicode="@" horiz-adv-x="1061" 
d="M946 522c23 -55 35 -114 35 -175c0 -34 -3 -67 -10 -99c-9 -40 -30 -75 -60 -101c-27 -25 -62 -40 -99 -46c-37 -5 -74 0 -108 15c-20 10 -38 23 -54 39c-36 -22 -76 -34 -119 -34c-61 0 -117 23 -160 66s-66 99 -66 160c0 60 23 117 66 160c43 42 99 66 160 66
c60 0 117 -24 160 -66c42 -43 66 -100 66 -160c0 -44 -13 -86 -36 -122c7 -8 16 -13 25 -18c16 -7 34 -9 52 -7c18 3 34 10 47 22c14 12 24 28 28 48c5 25 8 51 8 77c0 93 -36 181 -102 248c-67 66 -155 102 -248 102c-94 0 -182 -36 -248 -102c-66 -67 -103 -155 -103 -248
c0 -94 37 -182 103 -248s154 -103 248 -103c38 0 75 6 111 18c26 9 54 -5 63 -31c9 -27 -5 -55 -32 -64c-45 -15 -93 -23 -142 -23c-61 0 -120 12 -176 36c-53 22 -101 55 -143 96c-41 42 -74 90 -96 143c-24 56 -36 115 -36 176s12 120 36 175c22 54 55 102 96 143
c42 42 90 74 143 97c56 23 115 35 176 35s120 -12 175 -35c54 -23 102 -55 143 -97c42 -41 74 -89 97 -143zM405 347c0 -70 56 -126 126 -126c69 0 126 56 126 126c0 69 -57 126 -126 126c-70 0 -126 -57 -126 -126z" />
    <glyph glyph-name="ampersand" unicode="&#x26;" horiz-adv-x="810" 
d="M326 -9h6h3h1c48 0 104 17 156 47c26 16 51 35 75 56l76 -79c20 -19 51 -20 71 -1c20 20 21 51 1 71l-81 84c11 16 23 32 33 50l1 1l55 94c13 24 5 55 -19 69c-23 14 -54 5 -68 -18l-55 -95c-6 -10 -12 -19 -18 -28l-152 157c28 14 71 36 108 66c56 44 84 93 84 145
c0 60 -26 111 -74 146c-39 27 -91 42 -147 42c-27 0 -54 -5 -79 -16c-24 -10 -46 -25 -65 -43c-39 -37 -62 -87 -62 -136c0 -24 4 -48 12 -73c11 -36 30 -70 54 -99c-21 -11 -43 -25 -63 -41c-30 -24 -53 -50 -69 -79c-20 -35 -30 -73 -30 -115c0 -58 19 -105 54 -141
c29 -28 68 -47 116 -57c31 -6 59 -7 76 -7zM382 698c35 0 67 -9 89 -24c22 -16 32 -36 32 -64c0 -25 -25 -50 -46 -67c-32 -25 -70 -45 -96 -58c-7 -3 -14 -7 -19 -9l-3 -2l-9 9c-22 22 -38 49 -46 77c-5 15 -8 30 -8 43c0 22 12 46 31 64c21 20 48 31 75 31zM314 355
l183 -189c-18 -16 -36 -30 -56 -41c-53 -31 -93 -34 -105 -34h-4c-12 0 -36 0 -62 5c-29 6 -51 16 -65 30c-17 17 -25 40 -25 70c0 45 20 83 61 116c23 18 49 32 73 43z" />
    <glyph glyph-name="copyright" unicode="&#xa9;" horiz-adv-x="1055" 
d="M528 -111c60 0 119 12 174 35c53 23 101 56 142 98c41 41 73 90 96 144c23 56 35 115 35 176s-12 121 -35 176c-23 54 -55 103 -96 145c-41 41 -89 74 -142 97c-55 24 -114 36 -174 36c-61 0 -120 -12 -175 -36c-53 -23 -101 -56 -142 -97c-41 -42 -73 -91 -96 -145
c-23 -55 -35 -115 -35 -176s12 -120 35 -176c23 -54 55 -103 96 -144c41 -42 89 -75 142 -98c55 -23 114 -35 175 -35zM528 696c92 0 179 -37 245 -104c66 -66 102 -155 102 -250c0 -94 -36 -183 -102 -250s-153 -103 -245 -103c-93 0 -180 36 -246 103
c-65 67 -102 156 -102 250c0 95 37 184 102 250c66 67 153 104 246 104zM533 113c45 0 89 13 126 39c23 15 29 46 13 69c-15 23 -46 29 -69 14c-21 -15 -45 -22 -70 -22c-70 0 -126 57 -126 126s56 126 126 126c22 0 43 -6 62 -17c24 -13 55 -5 69 19c13 24 5 54 -19 68
c-34 20 -73 30 -112 30c-61 0 -118 -23 -160 -66c-43 -43 -66 -100 -66 -160s23 -117 66 -160c42 -42 99 -66 160 -66z" />
    <glyph glyph-name="asciicircum" unicode="^" horiz-adv-x="525" 
d="M130 544c14 0 28 6 38 17l94 106l96 -106c18 -21 50 -22 70 -4c21 19 22 50 4 71l-132 147c-10 11 -23 17 -38 17c-14 0 -27 -6 -37 -17l-132 -147c-18 -21 -17 -52 4 -71c9 -8 21 -13 33 -13z" />
    <glyph glyph-name="ampersand.ss01" horiz-adv-x="830" 
d="M700 450c27 0 50 -22 50 -50c0 -27 -23 -50 -50 -50h-68v-87c0 -128 -67 -191 -123 -221c-60 -32 -126 -37 -160 -37h-1c-21 0 -82 1 -140 23c-82 33 -128 98 -128 184c0 50 10 94 30 129c13 23 30 43 51 59c-8 6 -15 12 -22 19c-27 30 -45 68 -54 111c-5 27 -5 49 -4 55
c0 62 23 113 67 148c50 39 124 56 221 51c68 -3 122 -17 125 -17c26 -7 43 -34 36 -61s-34 -43 -60 -36c-1 0 -49 11 -108 14c-69 4 -123 -7 -152 -30c-13 -10 -29 -28 -29 -70c0 -1 0 -2 -1 -3c0 -4 -1 -58 33 -94c23 -24 60 -37 109 -37h210v61c0 28 22 50 50 50
c27 0 50 -22 50 -50v-61h68zM532 263v87h-193c-111 0 -159 -41 -159 -138c0 -45 20 -73 64 -90c42 -17 89 -17 104 -17h1c25 0 72 4 113 25c47 26 70 69 70 133z" />
    </font>
</defs>
</svg>
